<svg xmlns="http://www.w3.org/2000/svg" xmlns:svg="http://www.w3.org/2000/svg" id="svg2" width="25" height="23" x="0" y="0" version="1.1" viewBox="-293 384 25 23" xml:space="preserve"><metadata id="metadata21"/><style id="style2" type="text/css">.st0{fill:#fff}</style><g id="g14" transform="matrix(1.2624869,0,0,1.3601695,73.614445,-144.84322)"><g id="g12"><path id="path4" d="m -277.4,396 c -0.7,0 -1.3,0 -2,0 -0.4,0 -0.5,-0.1 -0.5,-0.5 0,-1 0,-2 0,-3 0,-0.3 0.2,-0.5 0.5,-0.5 1.3,-0.1 2.6,-0.3 3.9,-0.4 0.4,0 0.7,0.1 0.7,0.6 0,1.1 0,2.2 0,3.3 0,0.4 -0.2,0.6 -0.6,0.6 -0.7,-0.1 -1.4,-0.1 -2,-0.1 z" class="st0" style="fill:#fff"/><path id="path6" d="m -274.9,399.3 c 0,0.6 0,1.1 0,1.7 0,0.4 -0.1,0.6 -0.6,0.6 -1.4,-0.1 -2.8,-0.3 -4.1,-0.4 -0.3,0 -0.4,-0.3 -0.4,-0.5 0,-1 0,-2 0,-3 0,-0.4 0.2,-0.5 0.6,-0.5 1.3,0 2.6,0 3.9,0 0.5,0 0.6,0.2 0.6,0.6 0,0.4 0,0.9 0,1.5 z" class="st0" style="fill:#fff"/><path id="path8" d="m -283.5,396 c -0.6,0 -1.3,0 -1.9,0 -0.4,0 -0.6,-0.1 -0.6,-0.6 0,-0.8 0,-1.5 0,-2.3 0,-0.4 0.2,-0.6 0.6,-0.7 1.3,-0.1 2.7,-0.3 4,-0.4 0.4,0 0.5,0.1 0.5,0.5 0,1 0,1.9 0,2.9 0,0.4 -0.2,0.5 -0.5,0.5 -0.8,0.1 -1.5,0.1 -2.1,0.1 z" class="st0" style="fill:#fff"/><path id="path10" d="m -283.5,397 c 0.6,0 1.3,0 1.9,0 0.4,0 0.6,0.1 0.6,0.5 0,1 0,1.9 0,2.9 0,0.4 -0.2,0.5 -0.5,0.5 -1.3,-0.1 -2.7,-0.3 -4,-0.4 -0.4,0 -0.6,-0.2 -0.6,-0.7 0,-0.7 0,-1.5 0,-2.2 0,-0.5 0.2,-0.7 0.7,-0.7 0.6,0.1 1.2,0.1 1.9,0.1 z" class="st0" style="fill:#fff"/></g></g></svg>